<svg width="46" height="50" viewBox="0 0 46 50" fill="none" xmlns="http://www.w3.org/2000/svg">
<path d="M44.788 12.4668H32.4655L33.7468 11.4394C34.0354 11.2085 34.3009 10.995 34.5087 10.7872C35.865 9.43664 36.6384 7.61857 36.6269 5.81204C36.6153 4.21907 36.0093 2.75307 34.9184 1.67955C33.8334 0.594479 32.3558 0 30.7629 0C28.9333 0 27.1267 0.756085 25.805 2.08356C25.1297 2.75307 24.3044 3.94203 23.4733 5.41957L22.9423 6.37189L22.4575 5.39649C21.7822 4.05169 20.8991 2.7877 20.1546 2.09511C18.8156 0.756085 17.009 0 15.1794 0C13.5576 0 12.0454 0.606023 11.0354 1.668C8.66901 4.04015 8.8537 8.20728 11.4336 10.7872C11.6414 10.995 11.9069 11.2085 12.1897 11.4336L13.471 12.461L1.15433 12.4668C0.519448 12.4668 0 12.9862 0 13.6211V26.1455C0 26.7804 0.519448 27.2999 1.15433 27.2999H2.02008V48.5972C2.02008 49.2321 2.53952 49.7516 3.1744 49.7516H42.8256C43.4605 49.7516 43.9799 49.2321 43.9799 48.5972V27.2422H44.8457C45.4806 27.2422 46 26.7227 46 26.0878V13.6211C45.9596 13.0208 45.394 12.4668 44.788 12.4668ZM21.8168 47.3852H4.27102V27.2422H21.8168V47.3852ZM21.8168 24.9912H2.25094V14.7754H21.8168V24.9912ZM21.6033 11.9358L21.5629 12.0223L21.4763 12.1262C21.2223 12.3744 20.6798 12.4668 20.2585 12.4668C18.0537 12.4668 14.6023 10.7353 12.992 9.18846C12.0512 8.24768 11.526 7.01255 11.5375 5.79473C11.5491 4.80778 11.9184 3.91317 12.588 3.27829C13.2286 2.63764 14.1752 2.25094 15.1217 2.25094C16.3222 2.25094 17.5747 2.7877 18.475 3.68808C20.2065 5.42534 21.6264 8.7325 21.811 10.6198L21.8168 11.2547C21.8168 11.5952 21.6783 11.8203 21.6033 11.9358ZM24.0735 10.6198C24.2582 8.7325 25.678 5.42534 27.4095 3.68808C28.3099 2.7877 29.5624 2.25094 30.7629 2.25094C31.8191 2.25094 32.7079 2.61455 33.3255 3.30715C34.0412 4.02284 34.399 5.05596 34.3124 6.19297C34.2258 7.29536 33.7237 8.35734 32.9041 9.18268C31.3804 10.7006 27.8713 12.4668 25.6261 12.4668C25.0259 12.4668 24.7026 12.3051 24.5583 12.2301L24.4775 12.1897L24.4083 12.1262C24.1947 11.9069 24.0678 11.5895 24.0678 11.2547L24.0735 10.6198ZM41.6713 47.3852H24.1255V27.2422H41.6713V47.3852ZM43.6913 24.9912H24.1255V14.7754H43.6913V24.9912Z" fill="#2E2E2E"/>
</svg>
